<?xml version="1.0" encoding="UTF-8" standalone="no"?>
<!-- Created with Inkscape (http://www.inkscape.org/) -->

<svg
   xmlns:dc="http://purl.org/dc/elements/1.1/"
   xmlns:cc="http://creativecommons.org/ns#"
   xmlns:rdf="http://www.w3.org/1999/02/22-rdf-syntax-ns#"
   xmlns:svg="http://www.w3.org/2000/svg"
   xmlns="http://www.w3.org/2000/svg"
   xmlns:sodipodi="http://sodipodi.sourceforge.net/DTD/sodipodi-0.dtd"
   xmlns:inkscape="http://www.inkscape.org/namespaces/inkscape"
   width="182.5493"
   height="41.361351"
   viewBox="0 0 48.299503 10.943524"
   version="1.1"
   id="svg8263"
   inkscape:version="0.92.0 r15299"
   sodipodi:docname="nidec.svg">
  <defs
     id="defs8257" />
  <sodipodi:namedview
     id="base"
     pagecolor="#ffffff"
     bordercolor="#666666"
     borderopacity="1.0"
     inkscape:pageopacity="0.0"
     inkscape:pageshadow="2"
     inkscape:zoom="4.9408067"
     inkscape:cx="90.774651"
     inkscape:cy="6.1500745"
     inkscape:document-units="mm"
     inkscape:current-layer="layer1"
     showgrid="false"
     fit-margin-top="0"
     fit-margin-left="0"
     fit-margin-right="0"
     fit-margin-bottom="0"
     units="px"
     inkscape:window-width="1280"
     inkscape:window-height="744"
     inkscape:window-x="-4"
     inkscape:window-y="-4"
     inkscape:window-maximized="1" />
  <metadata
     id="metadata8260">
    <rdf:RDF>
      <cc:Work
         rdf:about="">
        <dc:format>image/svg+xml</dc:format>
        <dc:type
           rdf:resource="http://purl.org/dc/dcmitype/StillImage" />
        <dc:title></dc:title>
      </cc:Work>
    </rdf:RDF>
  </metadata>
  <g
     inkscape:label="Layer 1"
     inkscape:groupmode="layer"
     id="layer1"
     transform="translate(-52.333731,-183.36226)">
    <g
       id="g8357"
       transform="translate(0.1322918,-0.1322874)">
      <path
         d="m 67.625033,194.30559 h -4.125736 l 2.162175,-6.79591 h 4.126442 z"
         style="fill:#2bb34b;fill-opacity:1;fill-rule:nonzero;stroke:none;stroke-width:0.35277778"
         id="path5433"
         inkscape:connector-curvature="0" />
      <path
         d="m 70.404534,185.56747 c -0.169333,0.53446 -0.745419,0.9712 -1.278819,0.9712 h -2.184753 c -0.534106,0 -0.832556,-0.43674 -0.662164,-0.9712 l 0.308681,-0.96908 c 0.170038,-0.53481 0.746125,-0.97155 1.28023,-0.97155 h 2.184753 c 0.5334,0 0.831497,0.43674 0.661458,0.97155 z"
         style="fill:#2bb34b;fill-opacity:1;fill-rule:nonzero;stroke:none;stroke-width:0.35277778"
         id="path5445"
         inkscape:connector-curvature="0" />
      <path
         d="m 77.089391,183.62684 -1.382183,4.34552 c 0.08114,-0.25471 -0.06068,-0.46285 -0.315031,-0.46285 h -3.663244 c -0.534106,0 -1.110192,0.43709 -1.280231,0.9712 l -1.544814,4.85457 c -0.16898,0.53376 0.128059,0.9705 0.662164,0.9705 h 8.252178 l 3.397603,-10.67894 h -4.126442 m -3.095625,9.73067 c -0.08079,0.25541 -0.354894,0.46214 -0.609953,0.46214 h -0.0448 c -0.255059,0 -0.396875,-0.20673 -0.316089,-0.46214 l 1.559277,-4.90008 c 0.08043,-0.254 0.355953,-0.46144 0.6096,-0.46144 h 0.04621 c 0.253647,0 0.395464,0.20744 0.315031,0.46144 z"
         style="fill:#2bb34b;fill-opacity:1;fill-rule:nonzero;stroke:none;stroke-width:0.35277778"
         id="path5449"
         inkscape:connector-curvature="0" />
      <path
         d="m 89.015644,191.1499 0.850194,-2.66947 c 0.169687,-0.53375 -0.128058,-0.97049 -0.662163,-0.97049 h -7.281334 c -0.534105,0 -1.110191,0.43674 -1.279525,0.97049 l -1.544108,4.85458 c -0.170392,0.5341 0.128058,0.97049 0.662164,0.97049 h 8.251472 l 0.154517,-0.48613 h -4.126089 c -0.533753,0 -0.832203,-0.43533 -0.662517,-0.97014 l 0.540809,-1.69933 h 5.09658 m -4.239683,-2.6924 c 0.08008,-0.25435 0.354894,-0.46143 0.609247,-0.46143 h 0.04621 c 0.254353,0 0.396169,0.20708 0.315383,0.46143 l -0.702733,2.20768 h -0.970845 z"
         style="fill:#2bb34b;fill-opacity:1;fill-rule:nonzero;stroke:none;stroke-width:0.35277778"
         id="path5453"
         inkscape:connector-curvature="0" />
      <path
         d="m 96.087692,187.99592 h 4.126438 l 0.15452,-0.48613 h -8.25253 c -0.533753,0 -1.109839,0.43674 -1.279525,0.97049 l -1.544814,4.85493 c -0.170039,0.53375 0.128411,0.97049 0.662164,0.97049 h 8.251825 l 0.154164,-0.48612 h -4.125031 c -0.534811,0 -0.831497,-0.43569 -0.662164,-0.97014 l 1.235428,-3.88479 c 0.170039,-0.5334 0.745419,-0.96873 1.279525,-0.96873"
         style="fill:#2bb34b;fill-opacity:1;fill-rule:nonzero;stroke:none;stroke-width:0.35277778"
         id="path5457"
         inkscape:connector-curvature="0" />
      <path
         d="m 65.440131,183.62684 -2.162175,6.79662 -4.147961,-6.79662 h -3.397603 l -3.398661,10.67894 h 0.485775 l 2.162528,-6.79627 4.147961,6.79627 h 3.397603 l 3.398308,-10.67894 z"
         style="fill:#2bb34b;fill-opacity:1;fill-rule:nonzero;stroke:none;stroke-width:0.35277778"
         id="path5461"
         inkscape:connector-curvature="0" />
    </g>
  </g>
</svg>
