<svg id="デザイン" xmlns="http://www.w3.org/2000/svg" viewBox="0 0 210.53 60.73"><defs><style>.cls-1{fill:#4c4948;}</style></defs><path class="cls-1" d="M1.23,25.89c0,2.83,1.58,4.33,5.45,5.19a38.07,38.07,0,0,1,5.93,1.59A2,2,0,0,1,14,34.62c0,1.82-1.94,3-4.84,3s-4.91-1.13-6.48-3.89l-.06-.1L0,35.89,0,36C1.88,39.24,5,40.91,9.19,40.91c5.09,0,8.26-2.49,8.26-6.49a4.46,4.46,0,0,0-1.92-3.93,16.33,16.33,0,0,0-5.16-1.8c-5.16-1.15-5.73-1.62-5.73-3s1.62-2.49,4-2.49a6.32,6.32,0,0,1,5.48,2.45l.07.1,2.35-2.55-.06-.07A9.8,9.8,0,0,0,8.76,20C4.18,20,1.23,22.29,1.23,25.89Z"/><path class="cls-1" d="M129.15,25.89c0,2.83,1.58,4.33,5.45,5.19a38.07,38.07,0,0,1,5.93,1.59A2,2,0,0,1,142,34.62c0,1.82-1.94,3-4.84,3s-4.91-1.13-6.48-3.89l-.06-.1-2.65,2.22,0,.08c1.84,3.27,4.92,4.94,9.15,4.94,5.1,0,8.26-2.49,8.26-6.49a4.46,4.46,0,0,0-1.92-3.93,16.33,16.33,0,0,0-5.16-1.8c-5.16-1.15-5.73-1.62-5.73-3s1.62-2.49,4-2.49a6.32,6.32,0,0,1,5.48,2.45l.07.1,2.35-2.55-.06-.07A9.8,9.8,0,0,0,136.68,20C132.11,20,129.15,22.29,129.15,25.89Z"/><path class="cls-1" d="M175.42,0V40.51h3.27V31.63L181,29.78l8.69,10.73H194L183.43,27.75l9.06-7.39h-4.83l-9,7.31V0Z"/><path class="cls-1" d="M46.33,20.36v2.42A9.6,9.6,0,0,0,39.43,20c-5.6,0-10,4.6-10,10.47s4.29,10.48,10,10.48a9.75,9.75,0,0,0,6.9-2.79v2.39H49.6V20.36Zm-6.81,17.3a6.81,6.81,0,0,1-6.66-7.08c0-4.25,2.78-7.33,6.61-7.33s6.86,3,6.86,7.23S43.46,37.66,39.52,37.66Z"/><path class="cls-1" d="M79,20.36v2.42A9.6,9.6,0,0,0,72.1,20c-5.6,0-10,4.6-10,10.47s4.29,10.48,10,10.48A9.75,9.75,0,0,0,79,38.12V50.6c0,4.22-2.29,6.73-6.13,6.73-3.59,0-6-2.43-6.14-6.18v-.1H63.32v.1c0,5.73,3.88,9.58,9.55,9.58,5.88,0,9.4-3.79,9.4-10.13V20.36Zm-6.81,17.3a6.8,6.8,0,0,1-6.65-7.08c0-4.25,2.78-7.33,6.61-7.33s6.85,3,6.85,7.23S76.14,37.66,72.19,37.66Z"/><path class="cls-1" d="M111.8,20.36v2.42A9.57,9.57,0,0,0,104.91,20c-5.6,0-10,4.6-10,10.47s4.29,10.48,10,10.48a9.73,9.73,0,0,0,6.89-2.79v2.39h3.28V20.36ZM105,37.66a6.81,6.81,0,0,1-6.66-7.08c0-4.25,2.78-7.33,6.61-7.33s6.85,3,6.85,7.23S108.94,37.66,105,37.66Z"/><path class="cls-1" d="M158.12,40.51h3.27V20.36h-3.27Zm1.63-31.86a2.63,2.63,0,1,0,2.63,2.63A2.63,2.63,0,0,0,159.75,8.65Z"/><path class="cls-1" d="M206.27,40.51h3.27V20.36h-3.27ZM207.9,8.65a2.63,2.63,0,1,0,2.63,2.63A2.63,2.63,0,0,0,207.9,8.65Z"/></svg>